<mxfile host="app.diagrams.net" modified="2024-04-18T05:09:59.172Z" agent="Mozilla/5.0 (X11; Linux x86_64) AppleWebKit/537.36 (KHTML, like Gecko) Chrome/114.0.0.0 Safari/537.36 Edg/114.0.1823.82" version="24.2.5" etag="eLmL1r__Qg0hU-3QHVpv" type="device" pages="6">
  <diagram id="GRkH4j6h9tGWG5sUHNqM" name="Page-1">
    <mxGraphModel dx="980" dy="572" grid="1" gridSize="10" guides="1" tooltips="1" connect="1" arrows="1" fold="1" page="1" pageScale="1" pageWidth="827" pageHeight="1169" math="0" shadow="0">
      <root>
        <mxCell id="0" />
        <mxCell id="1" parent="0" />
        <mxCell id="X1xVsS2ThKCpEWnxg9dI-8" value="" style="rounded=0;whiteSpace=wrap;html=1;" vertex="1" parent="1">
          <mxGeometry x="105" y="210" width="170" height="390" as="geometry" />
        </mxCell>
        <mxCell id="X1xVsS2ThKCpEWnxg9dI-1" value="&lt;h1 style=&quot;margin-top: 0px;&quot;&gt;Exploit Overview&lt;/h1&gt;&lt;p&gt;This diagram gives an overview of the exploit of CVE-2022-0185&lt;/p&gt;" style="text;html=1;whiteSpace=wrap;overflow=hidden;rounded=0;" vertex="1" parent="1">
          <mxGeometry x="30" y="60" width="220" height="90" as="geometry" />
        </mxCell>
        <mxCell id="X1xVsS2ThKCpEWnxg9dI-2" value="heap Buffer Underflow" style="rounded=0;whiteSpace=wrap;html=1;" vertex="1" parent="1">
          <mxGeometry x="130" y="290" width="120" height="60" as="geometry" />
        </mxCell>
        <mxCell id="X1xVsS2ThKCpEWnxg9dI-13" value="" style="edgeStyle=orthogonalEdgeStyle;rounded=0;orthogonalLoop=1;jettySize=auto;html=1;" edge="1" parent="1" source="X1xVsS2ThKCpEWnxg9dI-3" target="X1xVsS2ThKCpEWnxg9dI-5">
          <mxGeometry relative="1" as="geometry" />
        </mxCell>
        <mxCell id="X1xVsS2ThKCpEWnxg9dI-14" value="Out of bounds read" style="edgeLabel;html=1;align=center;verticalAlign=middle;resizable=0;points=[];" vertex="1" connectable="0" parent="X1xVsS2ThKCpEWnxg9dI-13">
          <mxGeometry x="-0.156" y="1" relative="1" as="geometry">
            <mxPoint as="offset" />
          </mxGeometry>
        </mxCell>
        <mxCell id="X1xVsS2ThKCpEWnxg9dI-3" value="msg_msg arb read" style="rounded=0;whiteSpace=wrap;html=1;" vertex="1" parent="1">
          <mxGeometry x="130" y="400" width="120" height="60" as="geometry" />
        </mxCell>
        <mxCell id="X1xVsS2ThKCpEWnxg9dI-5" value="heap spray to get kernel leak" style="rounded=0;whiteSpace=wrap;html=1;" vertex="1" parent="1">
          <mxGeometry x="130" y="514.5" width="120" height="60" as="geometry" />
        </mxCell>
        <mxCell id="X1xVsS2ThKCpEWnxg9dI-10" value="" style="endArrow=classic;html=1;rounded=0;exitX=0.5;exitY=1;exitDx=0;exitDy=0;entryX=0.5;entryY=0;entryDx=0;entryDy=0;" edge="1" parent="1" source="X1xVsS2ThKCpEWnxg9dI-2" target="X1xVsS2ThKCpEWnxg9dI-3">
          <mxGeometry width="50" height="50" relative="1" as="geometry">
            <mxPoint x="190" y="420" as="sourcePoint" />
            <mxPoint x="240" y="370" as="targetPoint" />
          </mxGeometry>
        </mxCell>
        <mxCell id="X1xVsS2ThKCpEWnxg9dI-12" value="override msg sizes" style="edgeLabel;html=1;align=center;verticalAlign=middle;resizable=0;points=[];" vertex="1" connectable="0" parent="X1xVsS2ThKCpEWnxg9dI-10">
          <mxGeometry x="-0.16" y="-1" relative="1" as="geometry">
            <mxPoint as="offset" />
          </mxGeometry>
        </mxCell>
        <mxCell id="X1xVsS2ThKCpEWnxg9dI-11" value="slabs" style="text;html=1;align=center;verticalAlign=middle;whiteSpace=wrap;rounded=0;" vertex="1" parent="1">
          <mxGeometry x="105" y="220" width="60" height="30" as="geometry" />
        </mxCell>
        <mxCell id="X1xVsS2ThKCpEWnxg9dI-15" value="" style="shape=flexArrow;endArrow=classic;html=1;rounded=0;" edge="1" parent="1">
          <mxGeometry width="50" height="50" relative="1" as="geometry">
            <mxPoint x="310" y="390" as="sourcePoint" />
            <mxPoint x="390" y="390" as="targetPoint" />
          </mxGeometry>
        </mxCell>
        <mxCell id="X1xVsS2ThKCpEWnxg9dI-16" value="" style="rounded=0;whiteSpace=wrap;html=1;" vertex="1" parent="1">
          <mxGeometry x="440" y="210" width="310" height="390" as="geometry" />
        </mxCell>
        <mxCell id="X1xVsS2ThKCpEWnxg9dI-17" value="slabs" style="text;html=1;align=center;verticalAlign=middle;whiteSpace=wrap;rounded=0;" vertex="1" parent="1">
          <mxGeometry x="450" y="210" width="60" height="30" as="geometry" />
        </mxCell>
        <mxCell id="X1xVsS2ThKCpEWnxg9dI-18" value="" style="rounded=0;whiteSpace=wrap;html=1;" vertex="1" parent="1">
          <mxGeometry x="530" y="275" width="210" height="140" as="geometry" />
        </mxCell>
        <mxCell id="X1xVsS2ThKCpEWnxg9dI-19" value="" style="rounded=0;whiteSpace=wrap;html=1;" vertex="1" parent="1">
          <mxGeometry x="530" y="415" width="210" height="165" as="geometry" />
        </mxCell>
        <mxCell id="X1xVsS2ThKCpEWnxg9dI-20" value="mmap&lt;div&gt;&lt;pre&gt;&lt;span class=&quot;pl-c&quot;&gt;0x1337000&lt;/span&gt;&lt;/pre&gt;&lt;/div&gt;" style="text;html=1;align=center;verticalAlign=middle;whiteSpace=wrap;rounded=0;" vertex="1" parent="1">
          <mxGeometry x="450" y="290" width="60" height="30" as="geometry" />
        </mxCell>
        <mxCell id="X1xVsS2ThKCpEWnxg9dI-21" value="mmap&lt;div&gt;&lt;pre&gt;&lt;span class=&quot;pl-c&quot;&gt;0x1338000&lt;/span&gt;&lt;/pre&gt;&lt;/div&gt;" style="text;html=1;align=center;verticalAlign=middle;whiteSpace=wrap;rounded=0;" vertex="1" parent="1">
          <mxGeometry x="450" y="430" width="60" height="30" as="geometry" />
        </mxCell>
        <mxCell id="X1xVsS2ThKCpEWnxg9dI-7" value="Heap Buffer Underflow" style="rounded=0;whiteSpace=wrap;html=1;" vertex="1" parent="1">
          <mxGeometry x="575" y="290" width="120" height="60" as="geometry" />
        </mxCell>
        <mxCell id="X1xVsS2ThKCpEWnxg9dI-6" value="fuse as a substitute of faultedfd" style="rounded=0;whiteSpace=wrap;html=1;" vertex="1" parent="1">
          <mxGeometry x="575" y="514.5" width="120" height="60" as="geometry" />
        </mxCell>
        <mxCell id="X1xVsS2ThKCpEWnxg9dI-4" value="msg_msg send message trigger page fault" style="rounded=0;whiteSpace=wrap;html=1;" vertex="1" parent="1">
          <mxGeometry x="575" y="400" width="120" height="60" as="geometry" />
        </mxCell>
        <mxCell id="X1xVsS2ThKCpEWnxg9dI-23" value="evil page" style="text;html=1;align=center;verticalAlign=middle;whiteSpace=wrap;rounded=0;" vertex="1" parent="1">
          <mxGeometry x="450" y="330" width="60" height="30" as="geometry" />
        </mxCell>
        <mxCell id="X1xVsS2ThKCpEWnxg9dI-24" value="fuse page" style="text;html=1;align=center;verticalAlign=middle;whiteSpace=wrap;rounded=0;" vertex="1" parent="1">
          <mxGeometry x="450" y="470" width="60" height="30" as="geometry" />
        </mxCell>
        <mxCell id="X1xVsS2ThKCpEWnxg9dI-25" value="" style="endArrow=classic;html=1;rounded=0;exitX=0.5;exitY=1;exitDx=0;exitDy=0;entryX=0.5;entryY=0;entryDx=0;entryDy=0;" edge="1" parent="1" source="X1xVsS2ThKCpEWnxg9dI-7" target="X1xVsS2ThKCpEWnxg9dI-4">
          <mxGeometry width="50" height="50" relative="1" as="geometry">
            <mxPoint x="650" y="410" as="sourcePoint" />
            <mxPoint x="700" y="360" as="targetPoint" />
          </mxGeometry>
        </mxCell>
        <mxCell id="X1xVsS2ThKCpEWnxg9dI-26" value="override pointer to point&lt;div&gt;to modprobe_path&lt;/div&gt;" style="edgeLabel;html=1;align=center;verticalAlign=middle;resizable=0;points=[];" vertex="1" connectable="0" parent="X1xVsS2ThKCpEWnxg9dI-25">
          <mxGeometry x="-0.44" relative="1" as="geometry">
            <mxPoint y="6" as="offset" />
          </mxGeometry>
        </mxCell>
        <mxCell id="X1xVsS2ThKCpEWnxg9dI-27" value="" style="endArrow=classic;html=1;rounded=0;exitX=0.5;exitY=1;exitDx=0;exitDy=0;" edge="1" parent="1" source="X1xVsS2ThKCpEWnxg9dI-4" target="X1xVsS2ThKCpEWnxg9dI-6">
          <mxGeometry width="50" height="50" relative="1" as="geometry">
            <mxPoint x="690" y="550" as="sourcePoint" />
            <mxPoint x="740" y="500" as="targetPoint" />
          </mxGeometry>
        </mxCell>
        <mxCell id="X1xVsS2ThKCpEWnxg9dI-28" value="trigger fuse to handle page fault&lt;div&gt;Therefore to arb write&lt;/div&gt;" style="edgeLabel;html=1;align=center;verticalAlign=middle;resizable=0;points=[];" vertex="1" connectable="0" parent="X1xVsS2ThKCpEWnxg9dI-27">
          <mxGeometry x="-0.45" y="-2" relative="1" as="geometry">
            <mxPoint x="2" y="9" as="offset" />
          </mxGeometry>
        </mxCell>
        <mxCell id="X1xVsS2ThKCpEWnxg9dI-29" value="Leak Kernel Base Address" style="text;html=1;align=center;verticalAlign=middle;whiteSpace=wrap;rounded=0;" vertex="1" parent="1">
          <mxGeometry x="105" y="640" width="175" height="50" as="geometry" />
        </mxCell>
        <mxCell id="X1xVsS2ThKCpEWnxg9dI-30" value="Arb write to get root privilege shell to comprise the system&amp;nbsp;" style="text;html=1;align=center;verticalAlign=middle;whiteSpace=wrap;rounded=0;" vertex="1" parent="1">
          <mxGeometry x="440" y="640" width="320" height="50" as="geometry" />
        </mxCell>
      </root>
    </mxGraphModel>
  </diagram>
  <diagram id="g5e2FngpN1CkG408-SUq" name="Page-2">
    <mxGraphModel dx="1176" dy="686" grid="1" gridSize="10" guides="1" tooltips="1" connect="1" arrows="1" fold="1" page="1" pageScale="1" pageWidth="827" pageHeight="1169" math="0" shadow="0">
      <root>
        <mxCell id="0" />
        <mxCell id="1" parent="0" />
        <mxCell id="DNw6m1fT9TXjRHbwuSzY-1" value="message n" style="rounded=1;whiteSpace=wrap;html=1;fillColor=#dae8fc;strokeColor=#6c8ebf;" vertex="1" parent="1">
          <mxGeometry x="224" y="90" width="140" height="30" as="geometry" />
        </mxCell>
        <mxCell id="DNw6m1fT9TXjRHbwuSzY-3" value="struct list_head m_list" style="rounded=1;whiteSpace=wrap;html=1;" vertex="1" parent="1">
          <mxGeometry x="224" y="170" width="130" height="20" as="geometry" />
        </mxCell>
        <mxCell id="DNw6m1fT9TXjRHbwuSzY-4" value="long type" style="rounded=1;whiteSpace=wrap;html=1;" vertex="1" parent="1">
          <mxGeometry x="224" y="190" width="130" height="20" as="geometry" />
        </mxCell>
        <mxCell id="DNw6m1fT9TXjRHbwuSzY-6" value="size_t m_ts" style="rounded=1;whiteSpace=wrap;html=1;fillColor=#f8cecc;strokeColor=#b85450;" vertex="1" parent="1">
          <mxGeometry x="224" y="210" width="130" height="20" as="geometry" />
        </mxCell>
        <mxCell id="DNw6m1fT9TXjRHbwuSzY-15" value="" style="edgeStyle=orthogonalEdgeStyle;rounded=0;orthogonalLoop=1;jettySize=auto;html=1;entryX=0;entryY=0.5;entryDx=0;entryDy=0;" edge="1" parent="1" source="DNw6m1fT9TXjRHbwuSzY-7" target="DNw6m1fT9TXjRHbwuSzY-10">
          <mxGeometry relative="1" as="geometry" />
        </mxCell>
        <mxCell id="DNw6m1fT9TXjRHbwuSzY-7" value="msg_msgseg * next" style="rounded=1;whiteSpace=wrap;html=1;" vertex="1" parent="1">
          <mxGeometry x="224" y="230" width="130" height="20" as="geometry" />
        </mxCell>
        <mxCell id="DNw6m1fT9TXjRHbwuSzY-8" value="security" style="rounded=1;whiteSpace=wrap;html=1;" vertex="1" parent="1">
          <mxGeometry x="224" y="250" width="130" height="20" as="geometry" />
        </mxCell>
        <mxCell id="DNw6m1fT9TXjRHbwuSzY-9" value="msg seg0" style="rounded=1;whiteSpace=wrap;html=1;fillColor=#fff2cc;strokeColor=#d6b656;" vertex="1" parent="1">
          <mxGeometry x="224" y="270" width="130" height="120" as="geometry" />
        </mxCell>
        <mxCell id="DNw6m1fT9TXjRHbwuSzY-16" value="" style="edgeStyle=orthogonalEdgeStyle;rounded=0;orthogonalLoop=1;jettySize=auto;html=1;" edge="1" parent="1" source="DNw6m1fT9TXjRHbwuSzY-10" target="DNw6m1fT9TXjRHbwuSzY-12">
          <mxGeometry relative="1" as="geometry" />
        </mxCell>
        <mxCell id="DNw6m1fT9TXjRHbwuSzY-10" value="msg_msgseg* next" style="rounded=1;whiteSpace=wrap;html=1;" vertex="1" parent="1">
          <mxGeometry x="424" y="230" width="130" height="20" as="geometry" />
        </mxCell>
        <mxCell id="DNw6m1fT9TXjRHbwuSzY-12" value="msg_msgseg* next" style="rounded=1;whiteSpace=wrap;html=1;" vertex="1" parent="1">
          <mxGeometry x="614" y="230" width="130" height="20" as="geometry" />
        </mxCell>
        <mxCell id="DNw6m1fT9TXjRHbwuSzY-13" value="msg seg1" style="rounded=1;whiteSpace=wrap;html=1;fillColor=#fff2cc;strokeColor=#d6b656;" vertex="1" parent="1">
          <mxGeometry x="424" y="250" width="130" height="120" as="geometry" />
        </mxCell>
        <mxCell id="DNw6m1fT9TXjRHbwuSzY-14" value="msg seg2" style="rounded=1;whiteSpace=wrap;html=1;fillColor=#fff2cc;strokeColor=#d6b656;" vertex="1" parent="1">
          <mxGeometry x="614" y="250" width="130" height="120" as="geometry" />
        </mxCell>
        <mxCell id="DNw6m1fT9TXjRHbwuSzY-18" value="" style="endArrow=classic;html=1;rounded=0;exitX=0;exitY=0.5;exitDx=0;exitDy=0;edgeStyle=orthogonalEdgeStyle;entryX=0.5;entryY=1;entryDx=0;entryDy=0;" edge="1" parent="1" source="DNw6m1fT9TXjRHbwuSzY-3" target="DNw6m1fT9TXjRHbwuSzY-24">
          <mxGeometry width="50" height="50" relative="1" as="geometry">
            <mxPoint x="154" y="250" as="sourcePoint" />
            <mxPoint x="110" y="200" as="targetPoint" />
            <Array as="points">
              <mxPoint x="154" y="180" />
            </Array>
          </mxGeometry>
        </mxCell>
        <mxCell id="DNw6m1fT9TXjRHbwuSzY-19" value="" style="endArrow=classic;html=1;rounded=0;exitX=1;exitY=0.5;exitDx=0;exitDy=0;entryX=0.5;entryY=1;entryDx=0;entryDy=0;edgeStyle=orthogonalEdgeStyle;" edge="1" parent="1" source="DNw6m1fT9TXjRHbwuSzY-3" target="DNw6m1fT9TXjRHbwuSzY-21">
          <mxGeometry width="50" height="50" relative="1" as="geometry">
            <mxPoint x="374" y="190" as="sourcePoint" />
            <mxPoint x="424" y="140" as="targetPoint" />
          </mxGeometry>
        </mxCell>
        <mxCell id="DNw6m1fT9TXjRHbwuSzY-20" value="" style="endArrow=classic;html=1;rounded=0;exitX=0.5;exitY=1;exitDx=0;exitDy=0;entryX=0.5;entryY=0;entryDx=0;entryDy=0;" edge="1" parent="1" source="DNw6m1fT9TXjRHbwuSzY-1" target="DNw6m1fT9TXjRHbwuSzY-3">
          <mxGeometry width="50" height="50" relative="1" as="geometry">
            <mxPoint x="249" y="120" as="sourcePoint" />
            <mxPoint x="304" y="120" as="targetPoint" />
          </mxGeometry>
        </mxCell>
        <mxCell id="DNw6m1fT9TXjRHbwuSzY-21" value="message n+1" style="rounded=1;whiteSpace=wrap;html=1;" vertex="1" parent="1">
          <mxGeometry x="364" y="90" width="140" height="30" as="geometry" />
        </mxCell>
        <mxCell id="DNw6m1fT9TXjRHbwuSzY-22" value="message n+2" style="rounded=1;whiteSpace=wrap;html=1;" vertex="1" parent="1">
          <mxGeometry x="504" y="90" width="140" height="30" as="geometry" />
        </mxCell>
        <mxCell id="DNw6m1fT9TXjRHbwuSzY-24" value="message n-1" style="rounded=1;whiteSpace=wrap;html=1;" vertex="1" parent="1">
          <mxGeometry x="84" y="90" width="140" height="30" as="geometry" />
        </mxCell>
        <mxCell id="DNw6m1fT9TXjRHbwuSzY-26" value="" style="endArrow=classic;html=1;rounded=0;entryX=0;entryY=0.5;entryDx=0;entryDy=0;" edge="1" parent="1" target="DNw6m1fT9TXjRHbwuSzY-9">
          <mxGeometry width="50" height="50" relative="1" as="geometry">
            <mxPoint x="170" y="330" as="sourcePoint" />
            <mxPoint x="210" y="320" as="targetPoint" />
          </mxGeometry>
        </mxCell>
        <mxCell id="DNw6m1fT9TXjRHbwuSzY-27" value="maximum length:&lt;div&gt;0x1000-0x30=0xfd0&lt;/div&gt;" style="text;html=1;align=center;verticalAlign=middle;whiteSpace=wrap;rounded=0;" vertex="1" parent="1">
          <mxGeometry x="40" y="282.5" width="120" height="95" as="geometry" />
        </mxCell>
      </root>
    </mxGraphModel>
  </diagram>
  <diagram id="TJivrZ3aP4AlOEgpAE0S" name="Page-3">
    <mxGraphModel dx="1176" dy="686" grid="1" gridSize="10" guides="1" tooltips="1" connect="1" arrows="1" fold="1" page="1" pageScale="1" pageWidth="827" pageHeight="1169" math="0" shadow="0">
      <root>
        <mxCell id="0" />
        <mxCell id="1" parent="0" />
        <mxCell id="Z7YCL41tWxldqFHAvN59-2" value="struct list_head m_list" style="rounded=1;whiteSpace=wrap;html=1;" vertex="1" parent="1">
          <mxGeometry x="250" y="140" width="130" height="20" as="geometry" />
        </mxCell>
        <mxCell id="Z7YCL41tWxldqFHAvN59-3" value="long type" style="rounded=1;whiteSpace=wrap;html=1;" vertex="1" parent="1">
          <mxGeometry x="250" y="160" width="130" height="20" as="geometry" />
        </mxCell>
        <mxCell id="Z7YCL41tWxldqFHAvN59-4" value="size_t m_ts" style="rounded=1;whiteSpace=wrap;html=1;fillColor=#f8cecc;strokeColor=#b85450;" vertex="1" parent="1">
          <mxGeometry x="250" y="180" width="130" height="20" as="geometry" />
        </mxCell>
        <mxCell id="Z7YCL41tWxldqFHAvN59-5" value="" style="edgeStyle=orthogonalEdgeStyle;rounded=0;orthogonalLoop=1;jettySize=auto;html=1;entryX=0;entryY=0.5;entryDx=0;entryDy=0;exitX=0;exitY=0.5;exitDx=0;exitDy=0;" edge="1" parent="1" source="Z7YCL41tWxldqFHAvN59-6" target="Z7YCL41tWxldqFHAvN59-10">
          <mxGeometry relative="1" as="geometry" />
        </mxCell>
        <mxCell id="Z7YCL41tWxldqFHAvN59-6" value="msg_msgseg * next" style="rounded=1;whiteSpace=wrap;html=1;" vertex="1" parent="1">
          <mxGeometry x="250" y="200" width="130" height="20" as="geometry" />
        </mxCell>
        <mxCell id="Z7YCL41tWxldqFHAvN59-7" value="security" style="rounded=1;whiteSpace=wrap;html=1;" vertex="1" parent="1">
          <mxGeometry x="250" y="220" width="130" height="20" as="geometry" />
        </mxCell>
        <mxCell id="Z7YCL41tWxldqFHAvN59-8" value="msg seg0" style="rounded=1;whiteSpace=wrap;html=1;fillColor=#fff2cc;strokeColor=#d6b656;" vertex="1" parent="1">
          <mxGeometry x="250" y="240" width="130" height="120" as="geometry" />
        </mxCell>
        <mxCell id="Z7YCL41tWxldqFHAvN59-10" value="msg_msgseg* next" style="rounded=1;whiteSpace=wrap;html=1;" vertex="1" parent="1">
          <mxGeometry x="250" y="390" width="130" height="20" as="geometry" />
        </mxCell>
        <mxCell id="Z7YCL41tWxldqFHAvN59-12" value="msg seg1" style="rounded=1;whiteSpace=wrap;html=1;fillColor=#fff2cc;strokeColor=#d6b656;" vertex="1" parent="1">
          <mxGeometry x="250" y="410" width="130" height="120" as="geometry" />
        </mxCell>
        <mxCell id="Z7YCL41tWxldqFHAvN59-22" value="legacy_data (fs_config)" style="rounded=1;whiteSpace=wrap;html=1;fillColor=#d5e8d4;strokeColor=#82b366;" vertex="1" parent="1">
          <mxGeometry x="60" y="20" width="130" height="120" as="geometry" />
        </mxCell>
        <mxCell id="Z7YCL41tWxldqFHAvN59-23" value="" style="rounded=0;whiteSpace=wrap;html=1;" vertex="1" parent="1">
          <mxGeometry x="170" y="110" width="20" height="30" as="geometry" />
        </mxCell>
        <mxCell id="Z7YCL41tWxldqFHAvN59-24" value="size=4095" style="text;html=1;align=center;verticalAlign=middle;whiteSpace=wrap;rounded=0;" vertex="1" parent="1">
          <mxGeometry x="130" y="140" width="60" height="30" as="geometry" />
        </mxCell>
        <mxCell id="Z7YCL41tWxldqFHAvN59-25" value="legacy_data (fs_config)" style="rounded=1;whiteSpace=wrap;html=1;fillColor=#d5e8d4;strokeColor=#82b366;" vertex="1" parent="1">
          <mxGeometry x="250" y="20" width="130" height="120" as="geometry" />
        </mxCell>
        <mxCell id="Z7YCL41tWxldqFHAvN59-26" value="" style="shape=flexArrow;endArrow=classic;html=1;rounded=0;" edge="1" parent="1">
          <mxGeometry width="50" height="50" relative="1" as="geometry">
            <mxPoint x="60" y="590" as="sourcePoint" />
            <mxPoint x="730" y="590" as="targetPoint" />
          </mxGeometry>
        </mxCell>
        <mxCell id="Z7YCL41tWxldqFHAvN59-27" value="struct list_head m_list" style="rounded=1;whiteSpace=wrap;html=1;" vertex="1" parent="1">
          <mxGeometry x="430" y="140" width="130" height="20" as="geometry" />
        </mxCell>
        <mxCell id="Z7YCL41tWxldqFHAvN59-28" value="long type" style="rounded=1;whiteSpace=wrap;html=1;" vertex="1" parent="1">
          <mxGeometry x="430" y="160" width="130" height="20" as="geometry" />
        </mxCell>
        <mxCell id="Z7YCL41tWxldqFHAvN59-29" value="evil data!" style="rounded=1;whiteSpace=wrap;html=1;fillColor=#dae8fc;strokeColor=#6c8ebf;" vertex="1" parent="1">
          <mxGeometry x="430" y="180" width="130" height="20" as="geometry" />
        </mxCell>
        <mxCell id="Z7YCL41tWxldqFHAvN59-30" value="" style="edgeStyle=orthogonalEdgeStyle;rounded=0;orthogonalLoop=1;jettySize=auto;html=1;entryX=0;entryY=0.5;entryDx=0;entryDy=0;exitX=0;exitY=0.5;exitDx=0;exitDy=0;" edge="1" parent="1" source="Z7YCL41tWxldqFHAvN59-31" target="Z7YCL41tWxldqFHAvN59-34">
          <mxGeometry relative="1" as="geometry" />
        </mxCell>
        <mxCell id="Z7YCL41tWxldqFHAvN59-31" value="msg_msgseg * next" style="rounded=1;whiteSpace=wrap;html=1;" vertex="1" parent="1">
          <mxGeometry x="430" y="200" width="130" height="20" as="geometry" />
        </mxCell>
        <mxCell id="Z7YCL41tWxldqFHAvN59-32" value="security" style="rounded=1;whiteSpace=wrap;html=1;" vertex="1" parent="1">
          <mxGeometry x="430" y="220" width="130" height="20" as="geometry" />
        </mxCell>
        <mxCell id="Z7YCL41tWxldqFHAvN59-33" value="msg seg0" style="rounded=1;whiteSpace=wrap;html=1;fillColor=#fff2cc;strokeColor=#d6b656;" vertex="1" parent="1">
          <mxGeometry x="430" y="240" width="130" height="120" as="geometry" />
        </mxCell>
        <mxCell id="Z7YCL41tWxldqFHAvN59-34" value="msg_msgseg* next" style="rounded=1;whiteSpace=wrap;html=1;" vertex="1" parent="1">
          <mxGeometry x="430" y="390" width="130" height="20" as="geometry" />
        </mxCell>
        <mxCell id="Z7YCL41tWxldqFHAvN59-35" value="msg seg1" style="rounded=1;whiteSpace=wrap;html=1;fillColor=#fff2cc;strokeColor=#d6b656;" vertex="1" parent="1">
          <mxGeometry x="430" y="410" width="130" height="120" as="geometry" />
        </mxCell>
        <mxCell id="Z7YCL41tWxldqFHAvN59-36" value="legacy_data (fs_config)" style="rounded=1;whiteSpace=wrap;html=1;fillColor=#d5e8d4;strokeColor=#82b366;" vertex="1" parent="1">
          <mxGeometry x="430" y="20" width="130" height="120" as="geometry" />
        </mxCell>
        <mxCell id="Z7YCL41tWxldqFHAvN59-37" value="struct list_head m_list" style="rounded=1;whiteSpace=wrap;html=1;" vertex="1" parent="1">
          <mxGeometry x="610" y="140" width="130" height="20" as="geometry" />
        </mxCell>
        <mxCell id="Z7YCL41tWxldqFHAvN59-38" value="long type" style="rounded=1;whiteSpace=wrap;html=1;" vertex="1" parent="1">
          <mxGeometry x="610" y="160" width="130" height="20" as="geometry" />
        </mxCell>
        <mxCell id="Z7YCL41tWxldqFHAvN59-39" value="evil data!" style="rounded=1;whiteSpace=wrap;html=1;fillColor=#dae8fc;strokeColor=#6c8ebf;" vertex="1" parent="1">
          <mxGeometry x="610" y="180" width="130" height="20" as="geometry" />
        </mxCell>
        <mxCell id="Z7YCL41tWxldqFHAvN59-40" value="" style="edgeStyle=orthogonalEdgeStyle;rounded=0;orthogonalLoop=1;jettySize=auto;html=1;entryX=0;entryY=0.5;entryDx=0;entryDy=0;exitX=0;exitY=0.5;exitDx=0;exitDy=0;" edge="1" parent="1" source="Z7YCL41tWxldqFHAvN59-41" target="Z7YCL41tWxldqFHAvN59-44">
          <mxGeometry relative="1" as="geometry" />
        </mxCell>
        <mxCell id="Z7YCL41tWxldqFHAvN59-41" value="msg_msgseg * next" style="rounded=1;whiteSpace=wrap;html=1;" vertex="1" parent="1">
          <mxGeometry x="610" y="200" width="130" height="20" as="geometry" />
        </mxCell>
        <mxCell id="Z7YCL41tWxldqFHAvN59-42" value="security" style="rounded=1;whiteSpace=wrap;html=1;" vertex="1" parent="1">
          <mxGeometry x="610" y="220" width="130" height="20" as="geometry" />
        </mxCell>
        <mxCell id="Z7YCL41tWxldqFHAvN59-43" value="msg seg0" style="rounded=1;whiteSpace=wrap;html=1;fillColor=#fff2cc;strokeColor=#d6b656;" vertex="1" parent="1">
          <mxGeometry x="610" y="240" width="130" height="120" as="geometry" />
        </mxCell>
        <mxCell id="Z7YCL41tWxldqFHAvN59-44" value="msg_msgseg* next" style="rounded=1;whiteSpace=wrap;html=1;" vertex="1" parent="1">
          <mxGeometry x="610" y="390" width="130" height="20" as="geometry" />
        </mxCell>
        <mxCell id="Z7YCL41tWxldqFHAvN59-45" value="msg seg1" style="rounded=1;whiteSpace=wrap;html=1;fillColor=#fff2cc;strokeColor=#d6b656;" vertex="1" parent="1">
          <mxGeometry x="610" y="410" width="130" height="120" as="geometry" />
        </mxCell>
        <mxCell id="Z7YCL41tWxldqFHAvN59-46" value="legacy_data (fs_config)" style="rounded=1;whiteSpace=wrap;html=1;fillColor=#d5e8d4;strokeColor=#82b366;" vertex="1" parent="1">
          <mxGeometry x="610" y="20" width="130" height="120" as="geometry" />
        </mxCell>
        <mxCell id="Z7YCL41tWxldqFHAvN59-47" value="seq_operations" style="rounded=1;whiteSpace=wrap;html=1;fillColor=#dae8fc;strokeColor=#6c8ebf;" vertex="1" parent="1">
          <mxGeometry x="610" y="530" width="130" height="30" as="geometry" />
        </mxCell>
      </root>
    </mxGraphModel>
  </diagram>
  <diagram id="_bWOpxxKT7tQEKd_RP5a" name="Page-4">
    <mxGraphModel dx="1176" dy="686" grid="1" gridSize="10" guides="1" tooltips="1" connect="1" arrows="1" fold="1" page="1" pageScale="1" pageWidth="827" pageHeight="1169" math="0" shadow="0">
      <root>
        <mxCell id="0" />
        <mxCell id="1" parent="0" />
        <mxCell id="5y1B7CODoZCYtaH93YC--1" value="" style="endArrow=none;html=1;rounded=0;" edge="1" parent="1">
          <mxGeometry width="50" height="50" relative="1" as="geometry">
            <mxPoint x="110" y="260" as="sourcePoint" />
            <mxPoint x="770" y="260" as="targetPoint" />
          </mxGeometry>
        </mxCell>
        <mxCell id="5y1B7CODoZCYtaH93YC--2" value="Userspace" style="text;html=1;align=center;verticalAlign=middle;whiteSpace=wrap;rounded=0;" vertex="1" parent="1">
          <mxGeometry x="110" y="230" width="60" height="30" as="geometry" />
        </mxCell>
        <mxCell id="5y1B7CODoZCYtaH93YC--3" value="Kernel Space" style="text;html=1;align=center;verticalAlign=middle;whiteSpace=wrap;rounded=0;" vertex="1" parent="1">
          <mxGeometry x="110" y="260" width="80" height="30" as="geometry" />
        </mxCell>
        <mxCell id="Qt-EiqHDh1Bs_o2gTIJT-1" value="VFS" style="rounded=0;whiteSpace=wrap;html=1;" vertex="1" parent="1">
          <mxGeometry x="210" y="310" width="180" height="170" as="geometry" />
        </mxCell>
        <mxCell id="Qt-EiqHDh1Bs_o2gTIJT-2" value="FUSE" style="rounded=0;whiteSpace=wrap;html=1;fillColor=#d5e8d4;strokeColor=#82b366;" vertex="1" parent="1">
          <mxGeometry x="500" y="310" width="130" height="30" as="geometry" />
        </mxCell>
        <mxCell id="Qt-EiqHDh1Bs_o2gTIJT-3" value="NFS" style="rounded=0;whiteSpace=wrap;html=1;fillColor=#f5f5f5;fontColor=#333333;strokeColor=#666666;" vertex="1" parent="1">
          <mxGeometry x="500" y="360" width="130" height="30" as="geometry" />
        </mxCell>
        <mxCell id="Qt-EiqHDh1Bs_o2gTIJT-4" value="Ext4" style="rounded=0;whiteSpace=wrap;html=1;fillColor=#f5f5f5;fontColor=#333333;strokeColor=#666666;" vertex="1" parent="1">
          <mxGeometry x="500" y="400" width="130" height="30" as="geometry" />
        </mxCell>
        <mxCell id="Qt-EiqHDh1Bs_o2gTIJT-5" value="...." style="rounded=0;whiteSpace=wrap;html=1;" vertex="1" parent="1">
          <mxGeometry x="500" y="450" width="130" height="30" as="geometry" />
        </mxCell>
        <mxCell id="Qt-EiqHDh1Bs_o2gTIJT-7" value="" style="rounded=0;whiteSpace=wrap;html=1;" vertex="1" parent="1">
          <mxGeometry x="470" y="60" width="180" height="170" as="geometry" />
        </mxCell>
        <mxCell id="Qt-EiqHDh1Bs_o2gTIJT-8" value="" style="rounded=0;whiteSpace=wrap;html=1;" vertex="1" parent="1">
          <mxGeometry x="210" y="110" width="180" height="120" as="geometry" />
        </mxCell>
        <mxCell id="Qt-EiqHDh1Bs_o2gTIJT-9" value="libfuse" style="rounded=1;whiteSpace=wrap;html=1;fillColor=#fff2cc;strokeColor=#d6b656;" vertex="1" parent="1">
          <mxGeometry x="480" y="155" width="160" height="30" as="geometry" />
        </mxCell>
        <mxCell id="Qt-EiqHDh1Bs_o2gTIJT-10" value="libc" style="rounded=1;whiteSpace=wrap;html=1;fillColor=#fff2cc;strokeColor=#d6b656;" vertex="1" parent="1">
          <mxGeometry x="480" y="190" width="160" height="30" as="geometry" />
        </mxCell>
        <mxCell id="Qt-EiqHDh1Bs_o2gTIJT-11" value="mount myfuse /tmp/fuse" style="rounded=1;whiteSpace=wrap;html=1;fillColor=#fff2cc;strokeColor=#d6b656;" vertex="1" parent="1">
          <mxGeometry x="480" y="110" width="160" height="30" as="geometry" />
        </mxCell>
        <mxCell id="Qt-EiqHDh1Bs_o2gTIJT-12" value="libc" style="rounded=1;whiteSpace=wrap;html=1;fillColor=#fff2cc;strokeColor=#d6b656;" vertex="1" parent="1">
          <mxGeometry x="220" y="190" width="160" height="30" as="geometry" />
        </mxCell>
        <mxCell id="Qt-EiqHDh1Bs_o2gTIJT-13" value="ls -l /tmp/fuse" style="rounded=1;whiteSpace=wrap;html=1;fillColor=#fff2cc;strokeColor=#d6b656;" vertex="1" parent="1">
          <mxGeometry x="220" y="150" width="160" height="30" as="geometry" />
        </mxCell>
        <mxCell id="Qt-EiqHDh1Bs_o2gTIJT-14" value="" style="endArrow=classic;html=1;rounded=0;exitX=0.881;exitY=1.233;exitDx=0;exitDy=0;edgeStyle=elbowEdgeStyle;entryX=0.169;entryY=1.067;entryDx=0;entryDy=0;elbow=vertical;entryPerimeter=0;exitPerimeter=0;" edge="1" parent="1" source="Qt-EiqHDh1Bs_o2gTIJT-13" target="Qt-EiqHDh1Bs_o2gTIJT-11">
          <mxGeometry width="50" height="50" relative="1" as="geometry">
            <mxPoint x="400" y="330" as="sourcePoint" />
            <mxPoint x="340" y="280" as="targetPoint" />
            <Array as="points">
              <mxPoint x="440" y="320" />
            </Array>
          </mxGeometry>
        </mxCell>
        <mxCell id="Qt-EiqHDh1Bs_o2gTIJT-15" value="" style="endArrow=classic;html=1;rounded=0;exitX=0.25;exitY=1;exitDx=0;exitDy=0;entryX=0.75;entryY=1;entryDx=0;entryDy=0;edgeStyle=elbowEdgeStyle;elbow=vertical;" edge="1" parent="1" source="Qt-EiqHDh1Bs_o2gTIJT-11" target="Qt-EiqHDh1Bs_o2gTIJT-13">
          <mxGeometry width="50" height="50" relative="1" as="geometry">
            <mxPoint x="690" y="330" as="sourcePoint" />
            <mxPoint x="740" y="280" as="targetPoint" />
            <Array as="points">
              <mxPoint x="450" y="330" />
            </Array>
          </mxGeometry>
        </mxCell>
      </root>
    </mxGraphModel>
  </diagram>
  <diagram id="fGDE-PBex24IUyPDTZ3f" name="Page-5">
    <mxGraphModel dx="1176" dy="686" grid="1" gridSize="10" guides="1" tooltips="1" connect="1" arrows="1" fold="1" page="1" pageScale="1" pageWidth="827" pageHeight="1169" math="0" shadow="0">
      <root>
        <mxCell id="0" />
        <mxCell id="1" parent="0" />
        <mxCell id="gpnWjAwoIU-sPk0a6cW1-1" value="struct list_head m_list" style="rounded=1;whiteSpace=wrap;html=1;" vertex="1" parent="1">
          <mxGeometry x="220" y="245" width="130" height="20" as="geometry" />
        </mxCell>
        <mxCell id="gpnWjAwoIU-sPk0a6cW1-2" value="long type" style="rounded=1;whiteSpace=wrap;html=1;" vertex="1" parent="1">
          <mxGeometry x="220" y="265" width="130" height="20" as="geometry" />
        </mxCell>
        <mxCell id="gpnWjAwoIU-sPk0a6cW1-3" value="size_t m_ts" style="rounded=1;whiteSpace=wrap;html=1;" vertex="1" parent="1">
          <mxGeometry x="220" y="285" width="130" height="20" as="geometry" />
        </mxCell>
        <mxCell id="gpnWjAwoIU-sPk0a6cW1-4" value="" style="edgeStyle=orthogonalEdgeStyle;rounded=0;orthogonalLoop=1;jettySize=auto;html=1;entryX=0;entryY=0.5;entryDx=0;entryDy=0;exitX=0;exitY=0.5;exitDx=0;exitDy=0;" edge="1" parent="1" source="gpnWjAwoIU-sPk0a6cW1-5" target="gpnWjAwoIU-sPk0a6cW1-8">
          <mxGeometry relative="1" as="geometry" />
        </mxCell>
        <mxCell id="gpnWjAwoIU-sPk0a6cW1-5" value="msg_msgseg * next" style="rounded=1;whiteSpace=wrap;html=1;fillColor=#f8cecc;strokeColor=#b85450;" vertex="1" parent="1">
          <mxGeometry x="220" y="305" width="130" height="20" as="geometry" />
        </mxCell>
        <mxCell id="gpnWjAwoIU-sPk0a6cW1-6" value="security" style="rounded=1;whiteSpace=wrap;html=1;" vertex="1" parent="1">
          <mxGeometry x="220" y="325" width="130" height="20" as="geometry" />
        </mxCell>
        <mxCell id="gpnWjAwoIU-sPk0a6cW1-7" value="msg seg0" style="rounded=1;whiteSpace=wrap;html=1;fillColor=#fff2cc;strokeColor=#d6b656;" vertex="1" parent="1">
          <mxGeometry x="220" y="345" width="130" height="60" as="geometry" />
        </mxCell>
        <mxCell id="gpnWjAwoIU-sPk0a6cW1-8" value="msg_msgseg* next" style="rounded=1;whiteSpace=wrap;html=1;" vertex="1" parent="1">
          <mxGeometry x="220" y="445" width="130" height="20" as="geometry" />
        </mxCell>
        <mxCell id="gpnWjAwoIU-sPk0a6cW1-9" value="msg seg1" style="rounded=1;whiteSpace=wrap;html=1;fillColor=#fff2cc;strokeColor=#d6b656;" vertex="1" parent="1">
          <mxGeometry x="220" y="465" width="130" height="120" as="geometry" />
        </mxCell>
        <mxCell id="gpnWjAwoIU-sPk0a6cW1-10" value="legacy_data (fs_config)" style="rounded=1;whiteSpace=wrap;html=1;fillColor=#d5e8d4;strokeColor=#82b366;" vertex="1" parent="1">
          <mxGeometry x="220" y="85" width="130" height="160" as="geometry" />
        </mxCell>
        <mxCell id="gpnWjAwoIU-sPk0a6cW1-21" value="struct list_head m_list" style="rounded=1;whiteSpace=wrap;html=1;" vertex="1" parent="1">
          <mxGeometry x="540" y="245" width="130" height="20" as="geometry" />
        </mxCell>
        <mxCell id="gpnWjAwoIU-sPk0a6cW1-22" value="long type" style="rounded=1;whiteSpace=wrap;html=1;" vertex="1" parent="1">
          <mxGeometry x="540" y="265" width="130" height="20" as="geometry" />
        </mxCell>
        <mxCell id="gpnWjAwoIU-sPk0a6cW1-23" value="size_t m_ts" style="rounded=1;whiteSpace=wrap;html=1;" vertex="1" parent="1">
          <mxGeometry x="540" y="285" width="130" height="20" as="geometry" />
        </mxCell>
        <mxCell id="gpnWjAwoIU-sPk0a6cW1-24" value="" style="edgeStyle=orthogonalEdgeStyle;rounded=0;orthogonalLoop=1;jettySize=auto;html=1;entryX=0;entryY=0.5;entryDx=0;entryDy=0;exitX=0;exitY=0.5;exitDx=0;exitDy=0;" edge="1" parent="1" source="gpnWjAwoIU-sPk0a6cW1-25" target="gpnWjAwoIU-sPk0a6cW1-28">
          <mxGeometry relative="1" as="geometry" />
        </mxCell>
        <mxCell id="gpnWjAwoIU-sPk0a6cW1-25" value="evil pointer" style="rounded=1;whiteSpace=wrap;html=1;fillColor=#f8cecc;strokeColor=#b85450;" vertex="1" parent="1">
          <mxGeometry x="540" y="305" width="130" height="20" as="geometry" />
        </mxCell>
        <mxCell id="gpnWjAwoIU-sPk0a6cW1-26" value="security" style="rounded=1;whiteSpace=wrap;html=1;" vertex="1" parent="1">
          <mxGeometry x="540" y="325" width="130" height="20" as="geometry" />
        </mxCell>
        <mxCell id="gpnWjAwoIU-sPk0a6cW1-27" value="msg seg0" style="rounded=1;whiteSpace=wrap;html=1;fillColor=#fff2cc;strokeColor=#d6b656;" vertex="1" parent="1">
          <mxGeometry x="540" y="345" width="130" height="50" as="geometry" />
        </mxCell>
        <mxCell id="gpnWjAwoIU-sPk0a6cW1-28" value="kernel_address" style="rounded=1;whiteSpace=wrap;html=1;" vertex="1" parent="1">
          <mxGeometry x="540" y="445" width="130" height="20" as="geometry" />
        </mxCell>
        <mxCell id="gpnWjAwoIU-sPk0a6cW1-30" value="legacy_data (fs_config)" style="rounded=1;whiteSpace=wrap;html=1;fillColor=#d5e8d4;strokeColor=#82b366;" vertex="1" parent="1">
          <mxGeometry x="540" y="85" width="130" height="160" as="geometry" />
        </mxCell>
        <mxCell id="rin1lauy452dQzpP_sZW-1" value="Send message to message queue equals to write to kernel memory!" style="text;html=1;align=center;verticalAlign=middle;whiteSpace=wrap;rounded=0;" vertex="1" parent="1">
          <mxGeometry x="60" y="295" width="110" height="110" as="geometry" />
        </mxCell>
        <mxCell id="rin1lauy452dQzpP_sZW-2" value="We can override msg_msgseg *next pointer to kernel address to achieve write to kernel memory!" style="text;html=1;align=center;verticalAlign=middle;whiteSpace=wrap;rounded=0;" vertex="1" parent="1">
          <mxGeometry x="390" y="295" width="110" height="110" as="geometry" />
        </mxCell>
      </root>
    </mxGraphModel>
  </diagram>
  <diagram id="xJQbzkDZ78rUx2vJ45Pz" name="Page-6">
    <mxGraphModel dx="419" dy="827" grid="1" gridSize="10" guides="1" tooltips="1" connect="1" arrows="1" fold="1" page="1" pageScale="1" pageWidth="827" pageHeight="1169" math="0" shadow="0">
      <root>
        <mxCell id="0" />
        <mxCell id="1" parent="0" />
        <mxCell id="2JxslsqQkXfx12qUn1wm-1" value="evil_page" style="rounded=1;whiteSpace=wrap;html=1;" vertex="1" parent="1">
          <mxGeometry x="140" y="120" width="70" height="160" as="geometry" />
        </mxCell>
        <mxCell id="2JxslsqQkXfx12qUn1wm-2" value="fuse_page" style="rounded=1;whiteSpace=wrap;html=1;" vertex="1" parent="1">
          <mxGeometry x="140" y="280" width="70" height="150" as="geometry" />
        </mxCell>
        <mxCell id="2JxslsqQkXfx12qUn1wm-3" value="0x1337000" style="text;html=1;align=center;verticalAlign=middle;whiteSpace=wrap;rounded=0;" vertex="1" parent="1">
          <mxGeometry x="50" y="120" width="60" height="30" as="geometry" />
        </mxCell>
        <mxCell id="2JxslsqQkXfx12qUn1wm-4" value="0x1338000" style="text;html=1;align=center;verticalAlign=middle;whiteSpace=wrap;rounded=0;" vertex="1" parent="1">
          <mxGeometry x="50" y="270" width="60" height="30" as="geometry" />
        </mxCell>
        <mxCell id="zszZ-inyTZOe9iNowVc9-1" value="struct list_head m_list" style="rounded=1;whiteSpace=wrap;html=1;" vertex="1" parent="1">
          <mxGeometry x="450" y="230" width="130" height="20" as="geometry" />
        </mxCell>
        <mxCell id="zszZ-inyTZOe9iNowVc9-2" value="long type" style="rounded=1;whiteSpace=wrap;html=1;" vertex="1" parent="1">
          <mxGeometry x="450" y="250" width="130" height="20" as="geometry" />
        </mxCell>
        <mxCell id="zszZ-inyTZOe9iNowVc9-3" value="size_t m_ts" style="rounded=1;whiteSpace=wrap;html=1;" vertex="1" parent="1">
          <mxGeometry x="450" y="270" width="130" height="20" as="geometry" />
        </mxCell>
        <mxCell id="zszZ-inyTZOe9iNowVc9-4" value="" style="edgeStyle=orthogonalEdgeStyle;rounded=0;orthogonalLoop=1;jettySize=auto;html=1;entryX=0;entryY=0.5;entryDx=0;entryDy=0;exitX=0;exitY=0.5;exitDx=0;exitDy=0;" edge="1" parent="1" source="zszZ-inyTZOe9iNowVc9-5" target="zszZ-inyTZOe9iNowVc9-8">
          <mxGeometry relative="1" as="geometry" />
        </mxCell>
        <mxCell id="zszZ-inyTZOe9iNowVc9-5" value="msg_msgseg * next" style="rounded=1;whiteSpace=wrap;html=1;fillColor=#f8cecc;strokeColor=#b85450;" vertex="1" parent="1">
          <mxGeometry x="450" y="290" width="130" height="20" as="geometry" />
        </mxCell>
        <mxCell id="zszZ-inyTZOe9iNowVc9-6" value="security" style="rounded=1;whiteSpace=wrap;html=1;" vertex="1" parent="1">
          <mxGeometry x="450" y="310" width="130" height="20" as="geometry" />
        </mxCell>
        <mxCell id="zszZ-inyTZOe9iNowVc9-7" value="msg seg0" style="rounded=1;whiteSpace=wrap;html=1;fillColor=#fff2cc;strokeColor=#d6b656;" vertex="1" parent="1">
          <mxGeometry x="450" y="330" width="130" height="60" as="geometry" />
        </mxCell>
        <mxCell id="zszZ-inyTZOe9iNowVc9-8" value="msg_msgseg* next" style="rounded=1;whiteSpace=wrap;html=1;" vertex="1" parent="1">
          <mxGeometry x="450" y="430" width="130" height="20" as="geometry" />
        </mxCell>
        <mxCell id="zszZ-inyTZOe9iNowVc9-9" value="msg seg1" style="rounded=1;whiteSpace=wrap;html=1;fillColor=#fff2cc;strokeColor=#d6b656;" vertex="1" parent="1">
          <mxGeometry x="450" y="450" width="130" height="120" as="geometry" />
        </mxCell>
        <mxCell id="zszZ-inyTZOe9iNowVc9-10" value="legacy_data (fs_config)" style="rounded=1;whiteSpace=wrap;html=1;fillColor=#d5e8d4;strokeColor=#82b366;" vertex="1" parent="1">
          <mxGeometry x="450" y="70" width="130" height="160" as="geometry" />
        </mxCell>
        <mxCell id="zszZ-inyTZOe9iNowVc9-11" value="struct list_head m_list" style="rounded=1;whiteSpace=wrap;html=1;" vertex="1" parent="1">
          <mxGeometry x="640" y="230" width="130" height="20" as="geometry" />
        </mxCell>
        <mxCell id="zszZ-inyTZOe9iNowVc9-12" value="long type" style="rounded=1;whiteSpace=wrap;html=1;" vertex="1" parent="1">
          <mxGeometry x="640" y="250" width="130" height="20" as="geometry" />
        </mxCell>
        <mxCell id="zszZ-inyTZOe9iNowVc9-13" value="size_t m_ts" style="rounded=1;whiteSpace=wrap;html=1;" vertex="1" parent="1">
          <mxGeometry x="640" y="270" width="130" height="20" as="geometry" />
        </mxCell>
        <mxCell id="zszZ-inyTZOe9iNowVc9-14" value="" style="edgeStyle=orthogonalEdgeStyle;rounded=0;orthogonalLoop=1;jettySize=auto;html=1;entryX=0;entryY=0.5;entryDx=0;entryDy=0;exitX=0;exitY=0.5;exitDx=0;exitDy=0;" edge="1" parent="1" source="zszZ-inyTZOe9iNowVc9-15" target="zszZ-inyTZOe9iNowVc9-18">
          <mxGeometry relative="1" as="geometry" />
        </mxCell>
        <mxCell id="zszZ-inyTZOe9iNowVc9-15" value="evil pointer" style="rounded=1;whiteSpace=wrap;html=1;fillColor=#f8cecc;strokeColor=#b85450;" vertex="1" parent="1">
          <mxGeometry x="640" y="290" width="130" height="20" as="geometry" />
        </mxCell>
        <mxCell id="zszZ-inyTZOe9iNowVc9-16" value="security" style="rounded=1;whiteSpace=wrap;html=1;" vertex="1" parent="1">
          <mxGeometry x="640" y="310" width="130" height="20" as="geometry" />
        </mxCell>
        <mxCell id="zszZ-inyTZOe9iNowVc9-17" value="msg seg0" style="rounded=1;whiteSpace=wrap;html=1;fillColor=#fff2cc;strokeColor=#d6b656;" vertex="1" parent="1">
          <mxGeometry x="640" y="330" width="130" height="50" as="geometry" />
        </mxCell>
        <mxCell id="zszZ-inyTZOe9iNowVc9-18" value="kernel_address" style="rounded=1;whiteSpace=wrap;html=1;" vertex="1" parent="1">
          <mxGeometry x="640" y="430" width="130" height="20" as="geometry" />
        </mxCell>
        <mxCell id="zszZ-inyTZOe9iNowVc9-19" value="legacy_data (fs_config)" style="rounded=1;whiteSpace=wrap;html=1;fillColor=#d5e8d4;strokeColor=#82b366;" vertex="1" parent="1">
          <mxGeometry x="640" y="70" width="130" height="160" as="geometry" />
        </mxCell>
        <mxCell id="zszZ-inyTZOe9iNowVc9-20" value="We can override msg_msgseg *next pointer to kernel address to achieve write to kernel memory!" style="text;html=1;align=center;verticalAlign=middle;whiteSpace=wrap;rounded=0;" vertex="1" parent="1">
          <mxGeometry x="650" y="490" width="110" height="110" as="geometry" />
        </mxCell>
        <mxCell id="zszZ-inyTZOe9iNowVc9-21" value="" style="endArrow=none;dashed=1;html=1;dashPattern=1 3;strokeWidth=2;rounded=0;" edge="1" parent="1">
          <mxGeometry width="50" height="50" relative="1" as="geometry">
            <mxPoint x="120" y="259.5" as="sourcePoint" />
            <mxPoint x="250" y="260" as="targetPoint" />
          </mxGeometry>
        </mxCell>
        <mxCell id="zszZ-inyTZOe9iNowVc9-23" value="msg buffer" style="rounded=1;whiteSpace=wrap;html=1;fillColor=#dae8fc;strokeColor=#6c8ebf;" vertex="1" parent="1">
          <mxGeometry x="240" y="260" width="70" height="150" as="geometry" />
        </mxCell>
        <mxCell id="zszZ-inyTZOe9iNowVc9-24" value="" style="endArrow=none;dashed=1;html=1;dashPattern=1 3;strokeWidth=2;rounded=0;" edge="1" parent="1">
          <mxGeometry width="50" height="50" relative="1" as="geometry">
            <mxPoint x="370" y="570" as="sourcePoint" />
            <mxPoint x="370" y="30" as="targetPoint" />
          </mxGeometry>
        </mxCell>
        <mxCell id="zszZ-inyTZOe9iNowVc9-25" value="User Space" style="text;html=1;align=center;verticalAlign=middle;whiteSpace=wrap;rounded=0;" vertex="1" parent="1">
          <mxGeometry x="280" y="30" width="80" height="30" as="geometry" />
        </mxCell>
        <mxCell id="zszZ-inyTZOe9iNowVc9-26" value="Kernel Space (Heap)" style="text;html=1;align=center;verticalAlign=middle;whiteSpace=wrap;rounded=0;" vertex="1" parent="1">
          <mxGeometry x="380" y="30" width="130" height="30" as="geometry" />
        </mxCell>
        <mxCell id="zszZ-inyTZOe9iNowVc9-27" value="" style="shape=flexArrow;endArrow=classic;startArrow=classic;html=1;rounded=0;" edge="1" parent="1">
          <mxGeometry width="100" height="100" relative="1" as="geometry">
            <mxPoint x="320" y="340" as="sourcePoint" />
            <mxPoint x="440" y="360" as="targetPoint" />
          </mxGeometry>
        </mxCell>
      </root>
    </mxGraphModel>
  </diagram>
</mxfile>
